# xmcd CD database file
#
# Track frame offsets:
#	150
#	9590
#	29195
#	49597
#	64990
#	79008
#	96676
#	109027
#	119490
#	135825
#
# Disc length: 2239 seconds
#
# Revision: 0
# Processed by: cddbd v1.5.2PL0 Copyright (c) Steve Scherf et al.
# Submitted via: CDex 1.51
#
DISCID=8808bd0a
DTITLE=Yusa - Haiku
DYEAR=2008
DGENRE=Jazz
TTITLE0=Haiku de Paz
TTITLE1=Walking Heads
TTITLE2=No Tengo Otro Lugar
TTITLE3=Y Te Apareces
TTITLE4=Conga Pasajera
TTITLE5=Paris, Muy Bien
TTITLE6=Tanto De Mi
TTITLE7=Minimum
TTITLE8=Sirvio de Algo?
TTITLE9=Gente Simple
EXTD=YEAR: 2008
EXTT0=
EXTT1=
EXTT2=
EXTT3=
EXTT4=
EXTT5=
EXTT6=
EXTT7=
EXTT8=
EXTT9=
PLAYORDER=
